<?xml version="1.0" encoding="utf-8"?>
<!-- Generator: Adobe Illustrator 16.0.0, SVG Export Plug-In . SVG Version: 6.00 Build 0)  -->
<!DOCTYPE svg PUBLIC "-//W3C//DTD SVG 1.1//EN" "http://www.w3.org/Graphics/SVG/1.1/DTD/svg11.dtd">
<svg version="1.1" id="Layer_1" xmlns="http://www.w3.org/2000/svg" xmlns:xlink="http://www.w3.org/1999/xlink" x="0px" y="0px"
	 width="240px" height="240px" viewBox="0 0 240 240" enable-background="new 0 0 240 240" xml:space="preserve">
<g>
	<path fill="none" d="M97.455,25.127c2.093-2.105,5.465-7.252,9.161-12.449C52.361,18.737,0.5,62.924,0.5,127.207
		c0,62.332,49.049,103.986,100,112.793c-0.097,0.004-15.087-33.568-15.122-33.593c-46.073-14.955-61.877-58.943-61.877-88.246
		C23.501,87.459,50.652,38.417,97.455,25.127z M126.484,12c4.086,4.581,7.303,7.618,11.545,11.708
		c52.763,11.649,79.445,61.372,79.445,94.453c0,30.471-15.856,73.879-62.162,88.454c-0.032,0.062-14.887,33.262-14.879,33.344
		c50.973-9.039,100.066-51.74,100.066-112.752C240.5,61.667,184.876,15.068,126.484,12z"/>
</g>
</svg>
