<?xml version="1.0" encoding="utf-8"?>
<!-- Generator: Adobe Illustrator 16.0.0, SVG Export Plug-In . SVG Version: 6.00 Build 0)  -->
<!DOCTYPE svg PUBLIC "-//W3C//DTD SVG 1.1//EN" "http://www.w3.org/Graphics/SVG/1.1/DTD/svg11.dtd">
<svg version="1.1" id="Layer_1" xmlns="http://www.w3.org/2000/svg" xmlns:xlink="http://www.w3.org/1999/xlink" x="0px" y="0px"
	 width="240px" height="240px" viewBox="0 0 240 240" enable-background="new 0 0 240 240" xml:space="preserve">
<g>
	<path fill="none" d="M213.405,51.114c-32.364,14.564-93.082,16.884-93.082,16.884S59.572,63.864,27.224,51
		c-13.761,166.882,93.099,188.521,93.099,188.992C120.323,240.469,222.687,218.281,213.405,51.114z M120.06,218.993
		c0,0-78.358-27.367-73.709-140.994c32.871,8.948,73.709,14.762,73.709,14.762s36.453-4.354,72.68-14.672
		C196.211,190.396,120.06,218.993,120.06,218.993z M61.779,94.999c3.619,88.392,58.823,107.995,58.823,107.995
		c0.009,0.012,58.808-33.271,58.466-107.857c-27.719,6.795-58.466,12.691-58.466,12.691S88.008,102.168,61.779,94.999z"/>
</g>
</svg>
