<?xml version="1.0" encoding="utf-8"?>
<!-- Generator: Adobe Illustrator 16.0.0, SVG Export Plug-In . SVG Version: 6.00 Build 0)  -->
<!DOCTYPE svg PUBLIC "-//W3C//DTD SVG 1.1//EN" "http://www.w3.org/Graphics/SVG/1.1/DTD/svg11.dtd">
<svg version="1.1" id="Layer_1" xmlns="http://www.w3.org/2000/svg" xmlns:xlink="http://www.w3.org/1999/xlink" x="0px" y="0px"
	 width="240px" height="240px" viewBox="0 0 240 240" enable-background="new 0 0 240 240" xml:space="preserve">
<g>
	<path fill="none" d="M10.332,70.473C5.106,82.355,1.551,89.64,0,120.43C0,168.246,27.775,209.563,68.018,229
		C20.251,182.897,11.072,136.118,10.332,70.473z M206.935,37.412C185.076,14.365,154.209,0,120,0
		C85.958,0,55.225,14.227,33.387,37.078c0.325,0.955,20.76,6.688,21.615,7.08c0.28-0.073,30.998-27.098,64.999-27.098
		s64.999,27.098,64.999,27.098S207.013,37.592,206.935,37.412z M229.665,70.473c-0.737,65.646-9.917,112.425-57.683,158.527
		C212.225,209.563,240,168.246,240,120.43C238.449,89.64,234.889,82.355,229.665,70.473z"/>
</g>
</svg>
