<?xml version="1.0" encoding="utf-8"?>
<!-- Generator: Adobe Illustrator 16.0.0, SVG Export Plug-In . SVG Version: 6.00 Build 0)  -->
<!DOCTYPE svg PUBLIC "-//W3C//DTD SVG 1.1//EN" "http://www.w3.org/Graphics/SVG/1.1/DTD/svg11.dtd">
<svg version="1.1" id="Layer_1" xmlns="http://www.w3.org/2000/svg" xmlns:xlink="http://www.w3.org/1999/xlink" x="0px" y="0px"
	 width="240px" height="240px" viewBox="0 0 240 240" enable-background="new 0 0 240 240" xml:space="preserve">
<g>
	<path fill="none" d="M133.477,197.531c0.562-26.151,0.984-57.699,0.997-58.272c-7.837-5.018-15.646-10.425-24.007-15.8
		c5.908,1.859,27.885,9.664,28.011,9.875c0.704,5.966,1.281,12.977,2.002,24.691c2.152-8.92,4.224-23.214,5-25.68
		c0.171-0.171,34.578-21.8,55.021-33.58c-5.09-5.023-17.235-16.715-29.012-30.617c-12.512-14.775-25.211-34.205-30.013-39.506
		c0.065-0.031-0.923-2.806-0.996-2.964C131.556,16.242,122.674,7.644,115.467,0c-4.938,7.328-14.956,21.45-21.008,27.653
		c-0.441,0.305-3.406,1.717-4,1.976C69.108,57.351,55.292,79.112,37.5,100.666c14.893,21.454,27.034,40.497,37.953,61.311
		c15.09,16.609,23.549,24.597,35.014,36.544c-6.002-3.951-16.007-11.854-22.009-15.805c10.13,14.86,22.915,35.348,30.011,50.371
		c2.745,3.035,5.703,6.348,6.003,6.913c9.741-22.697,17.676-36.764,20.008-40.495c0.012-1.018,0.008-1.884,0-1.974
		c7.128-11.698,22.407-37.517,31.009-53.333c4.301-9.163,11.82-25.276,17.009-33.582
		C163.998,138.376,140.08,182.102,133.477,197.531z M178.491,91.853c-18.916-4.079-24.198-5.292-36.014-8.889
		c-7.061-12.783-18.066-44.267-23.008-67.161C138.807,41.148,159.282,66.956,178.491,91.853z M81.553,50.149
		c-1.16,3.46-1.062,6.876-5.099,8.122C76.019,55.791,78.572,52.833,81.553,50.149z M113.467,11.851
		c-7.125,31.525-30.409,72.875-38.014,80.001C85.52,66.854,98.703,35.83,113.467,11.851z M84.816,153.48
		c-13.247-17.685-23.689-33.159-34.373-48.79c25.372,8.329,34.725,9.967,50.02,14.815c-9.669-0.328-20.619-1.363-31.011-2.962
		C75.583,127.63,81.923,142.237,84.816,153.48z M104.465,112.592c7.739-7.115,19.922-17.34,32.011-24.691
		C128.419,96.538,115.553,106.519,104.465,112.592z"/>
</g>
</svg>
