<?xml version="1.0" encoding="utf-8"?>
<!-- Generator: Adobe Illustrator 16.0.0, SVG Export Plug-In . SVG Version: 6.00 Build 0)  -->
<!DOCTYPE svg PUBLIC "-//W3C//DTD SVG 1.1//EN" "http://www.w3.org/Graphics/SVG/1.1/DTD/svg11.dtd">
<svg version="1.1" id="Layer_1" xmlns="http://www.w3.org/2000/svg" xmlns:xlink="http://www.w3.org/1999/xlink" x="0px" y="0px"
	 width="240px" height="240px" viewBox="0 0 240 240" enable-background="new 0 0 240 240" xml:space="preserve">
<path fill-rule="evenodd" clip-rule="evenodd" fill="none" d="M188.502,218.499C172.226,230.49,149.162,240.5,120.5,240.5
	c-66.274,0-120-54.565-120-120c0-31.592,11.263-53.771,16.999-62c26.207,22.02,44,43.294,44,43
	c-11.713,53.888,10.785,90.379,60.002,104.002c18.62,2.222,34.232-1.212,46.899-7.178
	C175.974,202.845,184.201,211.077,188.502,218.499z M218.08,189.796c14.095-19.694,22.42-43.682,22.42-69.296
	c0-65.294-53.646-120-120-120c-10.504,0-21.047,1.074-35,4.999c59.947-9.687,139.554,25.376,136.002,114
	c-2.894,22.957-11.813,40.873-21.001,53.003C206.345,181.389,210.356,184.4,218.08,189.796z"/>
</svg>
