<?xml version="1.0" encoding="utf-8"?>
<!-- Generator: Adobe Illustrator 16.0.0, SVG Export Plug-In . SVG Version: 6.00 Build 0)  -->
<!DOCTYPE svg PUBLIC "-//W3C//DTD SVG 1.1//EN" "http://www.w3.org/Graphics/SVG/1.1/DTD/svg11.dtd">
<svg version="1.1" id="Layer_1" xmlns="http://www.w3.org/2000/svg" xmlns:xlink="http://www.w3.org/1999/xlink" x="0px" y="0px"
	 width="240px" height="240px" viewBox="0 0 240 240" enable-background="new 0 0 240 240" xml:space="preserve">
<g>
	<path fill="none" d="M0.5,121.389c0,21.896,5.412,42.68,15.874,60.236c0.083,0.041,12.064-34.084,14.125-46.178
		c-0.474,0-7.884-24.062,0.262-49.804C31.832,81.352,43.5,50.095,43.5,50.095s24.368-10.733,30.719-13.924
		C74.5,36.396,93.508,3.625,93.352,3.625C33.632,18.342,0.5,65.866,0.5,121.389z M147.648,3.625
		c-0.158,0,18.852,32.771,19.133,32.546c6.352,3.191,30.722,13.924,30.722,13.924s11.665,31.256,12.735,35.548
		c8.146,25.742,0.736,49.804,0.261,49.804c2.063,12.094,14.042,46.219,14.128,46.178c10.461-17.557,15.873-38.341,15.873-60.236
		C240.5,65.866,207.366,18.342,147.648,3.625z"/>
</g>
</svg>
