<?xml version="1.0" encoding="utf-8"?>
<!-- Generator: Adobe Illustrator 16.0.0, SVG Export Plug-In . SVG Version: 6.00 Build 0)  -->
<!DOCTYPE svg PUBLIC "-//W3C//DTD SVG 1.1//EN" "http://www.w3.org/Graphics/SVG/1.1/DTD/svg11.dtd">
<svg version="1.1" id="Layer_1" xmlns="http://www.w3.org/2000/svg" xmlns:xlink="http://www.w3.org/1999/xlink" x="0px" y="0px"
	 width="240px" height="240px" viewBox="0 0 240 240" enable-background="new 0 0 240 240" xml:space="preserve">
<path fill-rule="evenodd" clip-rule="evenodd" fill="none" d="M18.999,120c-0.269,18.9,4.004,30.001,4.004,30.001l-21.004-5.546
	c0,0-1.188-6.633-1.998-24.455C0,54.651,52.706,0,120,0c66.276,0,120,53.724,120,120s-53.724,120-120,120
	c-33.138,0-63.135-13.432-84.856-35.148C34.827,204.534,16,225.002,16,225.002L2.999,157L66,174c0,0-16.533,16.936-17.542,17.298
	c18.291,18.347,43.588,29.704,71.542,29.704c55.782,0,101.002-45.22,101.002-101.002c0-55.762-43.697-101.001-100.945-101.001
	C62.814,18.999,18.999,65.996,18.999,120z"/>
</svg>
