<?xml version="1.0" encoding="utf-8"?>
<!-- Generator: Adobe Illustrator 16.0.0, SVG Export Plug-In . SVG Version: 6.00 Build 0)  -->
<!DOCTYPE svg PUBLIC "-//W3C//DTD SVG 1.1//EN" "http://www.w3.org/Graphics/SVG/1.1/DTD/svg11.dtd">
<svg version="1.1" id="Layer_1" xmlns="http://www.w3.org/2000/svg" xmlns:xlink="http://www.w3.org/1999/xlink" x="0px" y="0px"
	 width="240px" height="240px" viewBox="0 0 240 240" enable-background="new 0 0 240 240" xml:space="preserve">
<g>
	<path fill="none" d="M193.497,101.01c-28.422,15.26-50.569,17.982-64.997,18.999c0.179,0-0.997,7.999-8,7.999
		c-7.002,0-7.935-7.869-8-7.999c-14.37-1.294-41.676-4.097-64.999-18.999c1.904,36.547-14.219,77.121-14,77.996
		c0.873,11.804,9.544,25.723,17,40.996C50.883,221.716,89.572,240,120.5,240s69.619-18.284,69.998-19.998
		c7.454-15.273,16.125-29.192,17-40.996C207.718,178.131,191.597,137.558,193.497,101.01z M120.5,210.001
		c-17.673,0-32-14.325-32-31.996s14.327-31.996,32-31.996c17.672,0,31.998,14.325,31.998,31.996S138.172,210.001,120.5,210.001z
		 M112.5,113.009c0,0,0.964-9.148,8-8.998c7.035,0,8,8.998,8,8.998s47.646-1.941,73.997-24.998c0.509,0-7.141-26.229-11.178-34.346
		c0.351,0.297-9.903-5.664-28.787-11.305C162.54,41.938,146.545,14,146.545,14L94.5,14.017c0,0-16.084,28.426-15.999,27.997
		c-16.78,5.318-29.15,11.929-28.82,11.651c-4.034,8.117-11.686,34.346-11.179,34.346C64.854,111.068,112.5,113.009,112.5,113.009z
		 M100.507,23.367h39.988c0,0,5.326,15.965,5.005,15.648c0.252,0.507-18.063-4.654-50,0C95.5,39.178,100.507,23.367,100.507,23.367z
		 M120.492,155.009c-12.705,0-23.005,10.298-23.005,23.004c0,12.707,10.3,23.005,23.005,23.005
		c12.708,0,23.006-10.298,23.006-23.005C143.498,165.307,133.199,155.009,120.492,155.009z"/>
</g>
</svg>
