<?xml version="1.0" encoding="utf-8"?>
<!-- Generator: Adobe Illustrator 16.0.0, SVG Export Plug-In . SVG Version: 6.00 Build 0)  -->
<!DOCTYPE svg PUBLIC "-//W3C//DTD SVG 1.1//EN" "http://www.w3.org/Graphics/SVG/1.1/DTD/svg11.dtd">
<svg version="1.1" id="Layer_1" xmlns="http://www.w3.org/2000/svg" xmlns:xlink="http://www.w3.org/1999/xlink" x="0px" y="0px"
	 width="240px" height="240px" viewBox="0 0 240 240" enable-background="new 0 0 240 240" xml:space="preserve">
<g>
	<path fill="none" d="M232.829,222.054c-1.925-3.325-2.022-8.802-2.022-8.802s-2.454-2.576-2.482-2.727
		c0,0-27.921-17.254-42.416-42.536c-0.228,0,13.002-20.753,13.002-20.753s-1.151-3.862,1.343-13.461
		c-0.012,0.012-0.691-1.038-0.842-2.108c-0.024-0.163-16.771,16.399-16.783,16.415c0,0-93.968-79.773-135.549-132.637
		C47.076,15.654,32.451,7.55,8.231,5.882c0.014-0.006-0.281,0.167-0.352,0.153c1.508,24.18,9.498,38.88,9.289,38.88
		c52.423,42.223,131.306,137.057,131.306,137.057c-0.013,0.008-16.628,16.476-16.47,16.5c1.066,0.167,2.108,0.863,2.096,0.875
		c9.584-2.355,13.426-1.151,13.426-1.151s20.774-12.896,20.771-12.672c24.913,13.217,42.326,42.654,42.326,42.654
		c0.154,0.028,2.71,2.507,2.71,2.507s5.47,0.179,8.778,2.145C224.157,233.676,233.651,224.108,232.829,222.054z M169.032,168.408
		l-0.195,0.191l-9.58,2.201c0,0-67.178-78.492-133.462-141.032c-2.104,3.227-2.476,7.311-2.476,7.311s-4.694-6.733-4.965-20.581
		c-0.067-0.069,0.124-0.258,0.191-0.191c14.009,0.25,20.713,4.989,20.713,4.989s-4.139,0.387-7.453,2.523
		c61.776,67.002,139.668,134.884,139.668,134.884L169.032,168.408z"/>
</g>
</svg>
