<?xml version="1.0" encoding="utf-8"?>
<!-- Generator: Adobe Illustrator 16.0.0, SVG Export Plug-In . SVG Version: 6.00 Build 0)  -->
<!DOCTYPE svg PUBLIC "-//W3C//DTD SVG 1.1//EN" "http://www.w3.org/Graphics/SVG/1.1/DTD/svg11.dtd">
<svg version="1.1" id="Layer_1" xmlns="http://www.w3.org/2000/svg" xmlns:xlink="http://www.w3.org/1999/xlink" x="0px" y="0px"
	 width="240px" height="240px" viewBox="0 0 240 240" enable-background="new 0 0 240 240" xml:space="preserve">
<g>
	<path fill="none" d="M120,49.954c11.304,0,31.039,2.002,46,20.178L120,0c0,0-46,70.132-46,70
		C88.396,51.956,108.696,49.954,120,49.954z M120,59.955c-18.101,0-27.962,7.613-27.962,9.178L120,91.997
		c0,0,27.963-22.752,27.963-22.864C147.963,67.792,138.1,59.955,120,59.955z M170,74c18.047,14.396,20.045,34.697,20.045,46
		s-1.998,31.039-20.179,46L240,120C240,120,169.866,74,170,74z M170.867,147.963c1.343,0,9.18-9.864,9.18-27.963
		c0-18.099-7.613-27.962-9.18-27.962L147.999,120C147.999,120,170.757,147.963,170.867,147.963z M120,190.045
		c-11.304,0-31.037-1.998-46-20.179L120,240c0,0,46-70.134,46-70C151.604,188.047,131.304,190.045,120,190.045z M92.038,170.867
		c0,1.343,9.861,9.18,27.962,9.18c18.1,0,27.963-7.613,27.963-9.18L120,147.999C120,147.999,92.038,170.757,92.038,170.867z
		 M49.954,120c0-11.304,2.002-31.039,20.178-46L0,120c0,0,70.132,46,70,46C51.956,151.604,49.954,131.304,49.954,120z M59.955,120
		c0,18.099,7.613,27.963,9.178,27.963L91.999,120c0,0-22.754-27.962-22.866-27.962C67.792,92.038,59.955,101.901,59.955,120z"/>
</g>
</svg>
