<?xml version="1.0" encoding="utf-8"?>
<!-- Generator: Adobe Illustrator 16.0.0, SVG Export Plug-In . SVG Version: 6.00 Build 0)  -->
<!DOCTYPE svg PUBLIC "-//W3C//DTD SVG 1.1//EN" "http://www.w3.org/Graphics/SVG/1.1/DTD/svg11.dtd">
<svg version="1.1" id="Layer_1" xmlns="http://www.w3.org/2000/svg" xmlns:xlink="http://www.w3.org/1999/xlink" x="0px" y="0px"
	 width="240px" height="240px" viewBox="0 0 240 240" enable-background="new 0 0 240 240" xml:space="preserve">
<path fill-rule="evenodd" clip-rule="evenodd" fill="none" d="M211.572,85.69c-10.125-26.345-31.445-47.489-57.779-57.446
	c0.203,0.305-18.787-28.063-18.814-27.217c53.334,6.923,96.975,50.232,103.98,103.849C239.939,104.999,211.783,86.008,211.572,85.69
	z M238.977,135.103c-6.906,53.695-50.029,97.053-104.051,103.875c0.08,0.936,19.07-27.314,18.893-27.139
	c26.801-9.992,48.162-31.459,58.092-58.201C211.914,153.968,239.939,134.976,238.977,135.103z M104.393,238.913
	C50.605,231.956,7.772,189.546,1.022,135.079c-0.925-0.104,27.367,18.889,27.009,18.77c9.867,26.99,31.222,48.217,58.04,58.07
	C86.04,212.11,104.857,239.913,104.393,238.913z M28.155,86.028c9.963-26.807,31.34-47.912,57.818-57.818
	c0.067,0.478,19.055-28.028,18.965-27.19c-0.037,0.004-0.073,0.008-0.109,0.014C51.479,7.896,7.876,50.381,1.03,104.958
	C0.097,104.999,28.149,86.008,28.155,86.028z"/>
</svg>
